<svg width="18" height="20" viewBox="0 0 18 20" fill="none" xmlns="http://www.w3.org/2000/svg">
<path d="M8.49041 0.0339546L3.36791 0.0549755L3.21069 0.14747C2.96217 0.294622 2.88609 0.475409 2.88609 0.912657V1.29525H2.42456C1.65365 1.29525 1.40513 1.45922 1.3747 1.99316L1.35442 2.29588L0.913172 2.31269C0.45164 2.3253 0.324846 2.37155 0.116903 2.59438C0.020539 2.70369 0.020539 2.85925 0.00532363 11.1039C-0.00481993 20.4165 -0.0352506 19.6807 0.319774 19.8909L0.476999 19.9834L7.51663 19.996C15.3221 20.0044 14.7743 20.0255 15.0229 19.7354C15.1091 19.6345 15.1395 19.5336 15.1547 19.2813L15.1699 18.9618L15.6112 18.9449C16.0727 18.9323 16.1995 18.8861 16.4075 18.6633C16.4835 18.5792 16.5089 18.4699 16.519 18.1629L16.5393 17.7762H16.9704C17.4827 17.7762 17.7261 17.6879 17.8935 17.4398L18 17.28V10.3387V3.3932L16.1082 1.78715C15.0634 0.904247 14.1353 0.139063 14.044 0.0844059C13.9527 0.0339546 13.8158 -0.00388336 13.7448 0.000320435C13.6738 0.00872993 11.3103 0.0213413 8.49041 0.0339546ZM13.3847 2.00578C13.3847 3.37218 13.3847 3.38479 13.5013 3.52774C13.5622 3.60342 13.6941 3.71273 13.7853 3.76318C13.9578 3.85988 13.973 3.85988 15.6213 3.85988H17.2899V10.4564C17.2899 16.4013 17.2798 17.0614 17.2088 17.1203C17.1378 17.1791 16.4531 17.1875 10.443 17.1875C4.43299 17.1875 3.7483 17.1791 3.67729 17.1203C3.60629 17.0614 3.59614 16.2584 3.59614 8.90505C3.59614 1.55171 3.60629 0.748688 3.67729 0.689827C3.7483 0.630968 4.26055 0.622559 8.57156 0.622559H13.3847V2.00578ZM16.0829 2.69108L16.7422 3.27127H15.4996C14.4345 3.27127 14.2418 3.26287 14.1759 3.20401C14.1049 3.14935 14.0947 2.98538 14.0947 2.08146V1.02197L14.7591 1.56853C15.1243 1.87124 15.7177 2.37576 16.0829 2.69108ZM2.88609 9.58195V17.28L2.9926 17.4398C3.05346 17.5281 3.18533 17.6374 3.29184 17.6879L3.48457 17.7762H9.65185H15.8191V18.0032C15.8191 18.4026 16.5393 18.3648 8.94687 18.3648C2.91145 18.3648 2.22676 18.3563 2.15576 18.2975C2.08475 18.2386 2.07461 17.4398 2.07461 10.1243C2.07461 2.8088 2.08475 2.00998 2.15576 1.95112C2.21155 1.90487 2.33327 1.88385 2.5615 1.88385H2.88609V9.58195ZM1.3747 10.7213C1.38992 18.4026 1.38992 18.5539 1.48628 18.6633C1.54207 18.7221 1.64351 18.8062 1.71451 18.8525C1.84131 18.9323 1.99853 18.9323 8.1506 18.9449L14.4498 18.9534V19.1173C14.4498 19.4411 15.0685 19.4158 7.57749 19.4158C1.54207 19.4158 0.857383 19.4074 0.786378 19.3486C0.715373 19.2897 0.705229 18.4867 0.705229 11.1544C0.705229 3.82204 0.715373 3.01902 0.786378 2.96016C0.837096 2.91811 0.953746 2.89289 1.11604 2.89289H1.36456L1.3747 10.7213Z" fill="#43CAAD"/>
<path d="M5.00089 5.23889C4.88424 5.344 4.88931 5.59626 5.00596 5.68034C5.09218 5.74761 5.54357 5.75182 10.4277 5.75182C15.5198 5.75182 15.7581 5.74761 15.8342 5.67614C15.9509 5.57103 15.9458 5.31877 15.8291 5.23469C15.7429 5.16742 15.2915 5.16321 10.4074 5.16321C5.31534 5.16321 5.07696 5.16742 5.00089 5.23889Z" fill="#43CAAD"/>
<path d="M5.00089 6.92061C4.88424 7.02572 4.88931 7.27798 5.00596 7.36207C5.09218 7.42934 5.54357 7.43354 10.4277 7.43354C15.5198 7.43354 15.7581 7.42934 15.8342 7.35786C15.9509 7.25275 15.9458 7.0005 15.8291 6.91641C15.7429 6.84914 15.2915 6.84494 10.4074 6.84494C5.31534 6.84494 5.07696 6.84914 5.00089 6.92061Z" fill="#43CAAD"/>
<path d="M5.00089 8.64438C4.88424 8.74949 4.88931 9.00175 5.00596 9.08584C5.09218 9.15311 5.54357 9.15731 10.4277 9.15731C15.5198 9.15731 15.7581 9.15311 15.8342 9.08163C15.9509 8.97653 15.9458 8.72427 15.8291 8.64018C15.7429 8.57291 15.2915 8.56871 10.4074 8.56871C5.31534 8.56871 5.07696 8.57291 5.00089 8.64438Z" fill="#43CAAD"/>
<path d="M5.00089 10.3681C4.88424 10.4733 4.88931 10.7255 5.00596 10.8096C5.09218 10.8769 5.54357 10.8811 10.4277 10.8811C15.5198 10.8811 15.7581 10.8769 15.8342 10.8054C15.9509 10.7003 15.9458 10.448 15.8291 10.3639C15.7429 10.2967 15.2915 10.2925 10.4074 10.2925C5.31534 10.2925 5.07696 10.2967 5.00089 10.3681Z" fill="#43CAAD"/>
<path d="M5.00089 12.0499C4.88424 12.155 4.88931 12.4072 5.00596 12.4913C5.09218 12.5586 5.43199 12.5628 8.85544 12.5628C12.426 12.5628 12.6136 12.5586 12.6897 12.4871C12.8064 12.382 12.8013 12.1298 12.6846 12.0457C12.5984 11.9784 12.2586 11.9742 8.83515 11.9742C5.26462 11.9742 5.07696 11.9784 5.00089 12.0499Z" fill="#43CAAD"/>
</svg>
