<svg width="24" height="20" viewBox="0 0 24 20" fill="none" xmlns="http://www.w3.org/2000/svg">
<path d="M1.79552 0.0555248C0.971422 0.253876 0.280838 0.852892 0.0644545 1.56695C0.0138117 1.7296 0 3.15375 0 9.32639C0 16.7605 0 16.8954 0.0920779 17.1453C0.345292 17.8594 1.14177 18.4663 1.99809 18.6012C2.18225 18.629 3.46673 18.6449 5.86536 18.6449C9.29987 18.6449 9.46561 18.6409 9.60372 18.5695C9.88456 18.4227 9.92139 18.0815 9.67739 17.8792L9.55308 17.7761L5.86997 17.7642C2.43546 17.7523 2.17304 17.7444 1.97047 17.6769C1.68042 17.5817 1.31671 17.2961 1.16018 17.0422L1.03588 16.8399L1.02206 10.3618C1.01746 6.79545 1.02667 3.88764 1.04508 3.89558C1.0681 3.89954 1.21543 3.96301 1.38117 4.03045C1.54691 4.10186 1.79091 4.17723 1.92443 4.20103C2.09477 4.23277 4.17113 4.24467 8.93155 4.24467H15.6993V5.79576C15.6993 7.17231 15.7085 7.35876 15.7775 7.45794C15.9571 7.72373 16.4543 7.72373 16.6339 7.45794C16.7029 7.35876 16.7121 7.15248 16.7121 5.49428V3.64169L16.5556 3.50681L16.3991 3.37193H15.5658H14.7325V1.801V0.230074L14.5989 0.11503L14.4654 -1.33514e-05L8.23176 0.00395393C3.40228 0.00792122 1.95666 0.0198231 1.79552 0.0555248ZM13.7196 2.12233V3.37193L7.9233 3.364L2.1316 3.3521L1.81393 3.21325C1.14177 2.91573 0.85172 2.28498 1.11414 1.67803C1.24305 1.37653 1.59295 1.07504 1.93364 0.959999C2.18685 0.876694 2.20987 0.876694 7.95553 0.876694L13.7196 0.872726V2.12233Z" fill="#43CAAD"/>
<path d="M16.4451 9.0144C13.6321 9.31986 11.413 11.1169 10.8789 13.5169C10.7592 14.0525 10.7731 15.0561 10.902 15.5877C11.1874 16.7421 11.7813 17.6664 12.7665 18.4836C13.6873 19.2532 14.8797 19.7689 16.1228 19.9435C16.6799 20.0188 17.7341 20.0188 18.259 19.9435C20.9385 19.5468 23.0424 17.7339 23.5028 15.4251C23.5903 14.9728 23.5903 14.0644 23.5028 13.5844C23.3003 12.5133 22.7017 11.4858 21.8086 10.6924C20.8556 9.8435 19.7645 9.32382 18.4524 9.09374C17.9137 8.99853 16.9469 8.96283 16.4451 9.0144ZM18.0012 9.92681C18.1669 9.95061 18.3787 9.98631 18.4754 10.0061L18.6457 10.0498V11.2161V12.3863H17.1955H15.7453L15.7545 11.2081L15.7683 10.026L16.0215 9.97838C16.5555 9.87127 17.3658 9.85143 18.0012 9.92681ZM14.7324 11.3946V12.3863H13.5814C12.9507 12.3863 12.4305 12.3705 12.4305 12.3546C12.4305 12.2515 13.0566 11.5255 13.3973 11.2359C13.7334 10.9424 14.5759 10.4028 14.6956 10.4028C14.714 10.4028 14.7324 10.8472 14.7324 11.3946ZM20.2341 10.6924C20.7957 11.0217 21.4909 11.6723 21.8454 12.1959L21.9697 12.3863H20.8141H19.6586V11.3946V10.3989L19.8105 10.4663C19.8888 10.502 20.0821 10.6052 20.2341 10.6924ZM14.7324 14.5087V15.7583H13.3743H12.0207L11.9747 15.6075C11.8734 15.2664 11.832 14.9609 11.832 14.5047C11.832 14.0842 11.924 13.394 11.9977 13.2948C12.0115 13.275 12.633 13.2591 13.3789 13.2591H14.7324V14.5087ZM18.6457 14.5087V15.7583H17.1955H15.7453V14.5087V13.2591H17.1955H18.6457V14.5087ZM22.4531 13.5645C22.5682 13.9969 22.5682 15.0165 22.4531 15.4489L22.3703 15.7583H21.0121H19.6586V14.5087V13.2591H21.0121H22.3703L22.4531 13.5645ZM14.7324 17.6267V18.6225L14.516 18.5154C13.738 18.1266 12.8678 17.3689 12.5041 16.758L12.4259 16.631H13.5814H14.7324V17.6267ZM18.6457 17.7973V18.9676L18.2912 19.039C17.7894 19.1382 16.6016 19.1382 16.1044 19.039L15.7453 18.9676V17.7973V16.631H17.1955H18.6457V17.7973ZM21.8638 16.7778C21.3574 17.5038 20.6622 18.1107 19.8565 18.5193L19.6586 18.6185V17.6267V16.631H20.8141H21.9697L21.8638 16.7778Z" fill="#43CAAD"/>
</svg>
