<svg width="23" height="20" viewBox="0 0 23 20" fill="none" xmlns="http://www.w3.org/2000/svg">
<path d="M10.8413 0.0450916C10.3952 0.134489 10.0422 0.270716 9.71368 0.475054C9.55189 0.577223 7.34077 2.46735 4.80607 4.67676C-0.376086 9.18497 0.00632495 8.80184 0.00632495 9.47871C0.0112277 9.91718 0.148503 10.2237 0.481887 10.5089C0.859395 10.8367 1.07511 10.9006 1.88406 10.9176L2.58024 10.9346V14.4382C2.58024 17.7842 2.58515 17.9502 2.6783 18.2653C2.81067 18.7165 2.98717 18.9847 3.36468 19.3125C3.72748 19.6275 4.1393 19.8361 4.59525 19.9298C5.06591 20.0234 17.9404 20.0234 18.4111 19.9298C19.1073 19.785 19.8181 19.2997 20.1221 18.7591C20.4261 18.2227 20.4261 18.2355 20.4261 14.4126V10.9346L21.1027 10.9176C21.7498 10.9048 21.7939 10.8963 22.1077 10.7643C22.4607 10.6111 22.7058 10.3982 22.8872 10.079C22.9804 9.91718 23 9.81501 23 9.47871C23 9.11686 22.9853 9.04875 22.8627 8.84015C22.75 8.65284 21.8479 7.844 18.1561 4.63419C15.2831 2.1353 13.4593 0.58148 13.2485 0.449511C12.7877 0.168547 12.2778 0.0238056 11.6257 0.00252151C11.312 -0.00599289 11.0276 0.00677872 10.8413 0.0450916ZM11.8414 0.964615C12.4935 1.07104 12.2288 0.866701 17.2295 5.19612C20.8477 8.33356 21.8626 9.23606 21.9018 9.351C21.9459 9.47019 21.941 9.53831 21.8822 9.6575C21.7449 9.94273 21.6518 9.96401 20.5634 9.98955C19.6367 10.0108 19.5877 10.0151 19.4848 10.1088L19.372 10.2067L19.3475 14.0891L19.323 17.9715L19.1955 18.2099C19.019 18.5334 18.7543 18.7761 18.4258 18.9166L18.1463 19.0358L16.3961 19.0485L14.6409 19.0613V16.422C14.6409 13.8507 14.636 13.7741 14.5379 13.5442C14.4007 13.2292 14.0477 12.9227 13.6849 12.8035C13.425 12.7183 13.3172 12.7141 11.5032 12.7141C9.68916 12.7141 9.5813 12.7183 9.32146 12.8035C8.95866 12.9227 8.60567 13.2292 8.46839 13.5442C8.37034 13.7741 8.36543 13.8507 8.36543 16.422V19.0613L6.61517 19.0485L4.86 19.0358L4.58055 18.9166C4.25207 18.7761 3.98732 18.5334 3.81082 18.2099L3.68335 17.9715L3.65884 14.0891L3.63433 10.2067L3.52156 10.1088C3.41861 10.0151 3.36958 10.0108 2.44297 9.98955C1.35457 9.96401 1.26142 9.94273 1.12414 9.6575C1.06531 9.53831 1.06041 9.47019 1.10453 9.351C1.14375 9.23606 2.15861 8.33356 5.77681 5.19612C9.88037 1.64149 10.4295 1.18172 10.6599 1.09658C11.1109 0.934814 11.4345 0.896502 11.8414 0.964615ZM13.3123 13.7102C13.3858 13.7443 13.4691 13.8209 13.5035 13.8848C13.5476 13.9656 13.5623 14.6553 13.5623 16.5241V19.0571H11.5032H9.44403V16.5113C9.44893 13.7868 9.44403 13.8294 9.69407 13.7102C9.87056 13.6251 13.1211 13.6251 13.3123 13.7102Z" fill="#43CAAD"/>
</svg>
