<svg width="24" height="20" viewBox="0 0 24 20" fill="none" xmlns="http://www.w3.org/2000/svg">
<path d="M2.1081 0.0654392C1.29663 0.268655 0.639299 0.741519 0.281165 1.37852C-0.0135029 1.89437 9.71239e-05 1.67943 9.71239e-05 6.24394C9.71239e-05 9.89007 0.00916382 10.4216 0.0726307 10.6326C0.222231 11.1328 0.603032 11.6448 1.05183 11.9535C1.5233 12.2739 2.18517 12.4967 2.68837 12.4967H2.90144V14.1654C2.90144 15.7637 2.90597 15.8419 2.99211 15.967C3.12811 16.1585 3.33211 16.2483 3.62678 16.2483C3.76278 16.2444 3.92144 16.2249 3.97131 16.1975C4.02571 16.1702 5.18625 15.33 6.54625 14.3217L9.02146 12.4967H12.7071C16.8324 12.4967 16.6828 12.5045 17.3356 12.2153C17.8298 11.9926 18.274 11.6096 18.5279 11.1875C18.877 10.6052 18.8588 10.8905 18.8588 6.24394C18.8588 1.60909 18.877 1.88265 18.537 1.31599C18.2015 0.764966 17.6303 0.331182 16.9412 0.112335L16.6148 0.0107288L9.49746 0.00291252C2.83797 -0.00490379 2.36197 -0.000995636 2.1081 0.0654392ZM16.3745 1.31208C16.8052 1.44105 17.1996 1.78495 17.3266 2.1523C17.4127 2.39068 17.4127 10.0972 17.3266 10.3356C17.1996 10.6951 16.7962 11.0507 16.3745 11.1758C16.2476 11.211 15.2775 11.2266 12.3761 11.2344C10.2681 11.2422 8.50012 11.254 8.44572 11.2657C8.38679 11.2774 7.44839 11.9457 6.36038 12.7507L4.37478 14.2123L4.35211 12.9148C4.33398 11.7464 4.32038 11.6018 4.24784 11.508C4.08918 11.2969 3.94864 11.2579 3.27317 11.2344C2.93317 11.2227 2.57504 11.1914 2.48437 11.168C2.0809 11.0664 1.67744 10.7186 1.53237 10.3551C1.4553 10.1636 1.42357 2.76585 1.4961 2.36333C1.60037 1.77322 2.03557 1.37852 2.67931 1.28473C2.81984 1.26519 5.77105 1.25346 9.56546 1.25737C14.7652 1.26128 16.2431 1.273 16.3745 1.31208Z" fill="#43CAAD"/>
<path d="M4.82808 3.80145C4.19341 3.99685 4.24328 4.80189 4.89608 4.9543C5.01394 4.98166 6.53715 4.98947 9.52916 4.98556L13.9854 4.97384L14.1441 4.88786C14.3572 4.77453 14.4796 4.58695 14.4796 4.3681C14.4796 4.14926 14.3572 3.96168 14.1441 3.84834L13.9854 3.76237L9.49743 3.75455C5.71208 3.74674 4.98221 3.75455 4.82808 3.80145Z" fill="#43CAAD"/>
<path d="M4.82808 6.30256C4.19341 6.49796 4.24328 7.303 4.89608 7.45541C5.01394 7.48277 6.07928 7.49449 8.07849 7.48667C10.9934 7.47495 11.0886 7.47104 11.2337 7.39679C11.4468 7.28737 11.5782 7.08806 11.5782 6.87312C11.5737 6.64255 11.4694 6.4706 11.2564 6.35336L11.0841 6.26348L8.04676 6.25566C5.50808 6.24785 4.97768 6.25566 4.82808 6.30256Z" fill="#43CAAD"/>
<path d="M20.6721 3.90697C20.3139 4.07111 20.1689 4.44627 20.3502 4.7511C20.459 4.93868 20.5542 5.00902 20.8307 5.11063C21.1843 5.23959 21.4201 5.43108 21.5878 5.72809L21.7374 5.98992V9.95651C21.7374 13.0399 21.7238 13.9583 21.6785 14.0872C21.5515 14.4507 21.1345 14.818 20.7265 14.9196C20.6358 14.9431 20.2777 14.9743 19.9377 14.9861C19.2622 15.0095 19.1216 15.0486 18.963 15.2596C18.8904 15.3534 18.8768 15.498 18.8587 16.6626L18.836 17.96L16.932 16.5532C15.8848 15.7794 14.9691 15.115 14.892 15.072C14.7606 15.0017 14.6246 14.9978 11.2835 14.9978H7.81094L7.66134 15.0838C7.23974 15.3339 7.23974 15.9083 7.65681 16.1546L7.82001 16.2483H11.007H14.1939L16.6736 18.0773C18.0382 19.0855 19.1987 19.9296 19.2531 19.9531C19.3075 19.9805 19.4616 20 19.5931 20C19.8787 20 20.0873 19.9062 20.2187 19.7186C20.3049 19.5936 20.3094 19.5154 20.3094 17.917V16.2483H20.527C21.4201 16.2444 22.4355 15.6817 22.8798 14.9392C23.2289 14.3569 23.2107 14.6422 23.2107 9.99559C23.2107 5.34902 23.2289 5.6382 22.8798 5.05201C22.6169 4.61432 22.1681 4.23524 21.6513 4.0164C21.1662 3.80537 20.9441 3.78192 20.6721 3.90697Z" fill="#43CAAD"/>
</svg>
